<mxfile host="app.diagrams.net" modified="2021-07-29T19:28:58.973Z" agent="5.0 (Windows NT 10.0; Win64; x64) AppleWebKit/537.36 (KHTML, like Gecko) Chrome/92.0.4515.107 Safari/537.36 Edg/92.0.902.55" etag="Ei7dpMEz9F5SMR04A2Ty" version="14.9.3" type="github">
  <diagram id="I-4pXhJ6pTfYDu9W2wTC" name="Page-1">
    <mxGraphModel dx="1452" dy="551" grid="1" gridSize="10" guides="1" tooltips="1" connect="1" arrows="1" fold="1" page="1" pageScale="1" pageWidth="850" pageHeight="1100" math="0" shadow="0">
      <root>
        <mxCell id="0" />
        <mxCell id="1" parent="0" />
        <mxCell id="tuq1d9O5VhRM1CwniIre-1" value="Hulu&amp;nbsp; &amp;nbsp; &amp;nbsp; Disney Plus&amp;nbsp; &amp;nbsp; &amp;nbsp; Netflix" style="rounded=1;whiteSpace=wrap;html=1;" vertex="1" parent="1">
          <mxGeometry x="195" y="80" width="460" height="120" as="geometry" />
        </mxCell>
        <mxCell id="tuq1d9O5VhRM1CwniIre-3" style="edgeStyle=orthogonalEdgeStyle;rounded=0;orthogonalLoop=1;jettySize=auto;html=1;" edge="1" parent="1" source="tuq1d9O5VhRM1CwniIre-2" target="tuq1d9O5VhRM1CwniIre-4">
          <mxGeometry relative="1" as="geometry">
            <mxPoint x="420" y="480" as="targetPoint" />
          </mxGeometry>
        </mxCell>
        <mxCell id="tuq1d9O5VhRM1CwniIre-2" value="Get Bundle Now!" style="rounded=1;whiteSpace=wrap;html=1;" vertex="1" parent="1">
          <mxGeometry x="240" y="270" width="360" height="40" as="geometry" />
        </mxCell>
        <mxCell id="tuq1d9O5VhRM1CwniIre-4" value="movie" style="whiteSpace=wrap;html=1;aspect=fixed;" vertex="1" parent="1">
          <mxGeometry x="340" y="460" width="160" height="160" as="geometry" />
        </mxCell>
        <mxCell id="tuq1d9O5VhRM1CwniIre-6" value="Movie" style="whiteSpace=wrap;html=1;aspect=fixed;" vertex="1" parent="1">
          <mxGeometry x="560" y="460" width="160" height="160" as="geometry" />
        </mxCell>
        <mxCell id="tuq1d9O5VhRM1CwniIre-7" value="Movie" style="whiteSpace=wrap;html=1;aspect=fixed;" vertex="1" parent="1">
          <mxGeometry x="110" y="460" width="160" height="160" as="geometry" />
        </mxCell>
      </root>
    </mxGraphModel>
  </diagram>
</mxfile>
